<svg width="135" height="29" viewBox="0 0 135 29" xmlns="http://www.w3.org/2000/svg"><title>mainLogo</title><path d="M30.558 21.915V7.638c0-4.323 2.648-7.219 6.425-7.219 3.699 0 6.23 2.816 6.347 6.624 0 .198-.118.318-.312.318H41.85c-.195 0-.312-.12-.312-.318-.155-2.856-1.946-4.878-4.555-4.878-2.726 0-4.594 2.101-4.594 5.513v14.237c0 3.133 1.985 5.236 4.671 5.236 2.726 0 4.712-2.103 4.712-4.997v-6.505h-4.166c-.195 0-.312-.119-.312-.317v-1.07c0-.2.117-.319.312-.319h5.062c.583 0 .895.318.895.913v7.298c0 3.847-2.765 6.741-6.503 6.741s-6.502-2.894-6.502-6.98m16.779-.039V7.44c0-3.847 2.531-6.743 6.269-6.743h3.855c.195 0 .311.12.311.318v1.07c0 .2-.116.357-.311.357h-3.855c-2.686 0-4.438 2.102-4.438 4.998v6.147h7.397c.195 0 .351.12.351.317v1.071c0 .198-.156.318-.35.318h-7.398v6.583c0 2.895 1.752 4.996 4.438 4.996h3.855c.195 0 .311.16.311.358v1.07c0 .199-.116.318-.311.318h-3.855c-3.738 0-6.269-2.895-6.269-6.742M61.82 28.22V7.48c0-4.164 2.492-7.06 6.307-7.06 3.778 0 6.27 2.896 6.27 7.06v20.74c0 .198-.118.318-.312.318h-1.168c-.195 0-.35-.12-.35-.318V7.479c0-3.213-1.753-5.314-4.44-5.314-2.725 0-4.477 2.101-4.477 5.314V28.22c0 .198-.117.318-.312.318h-1.167c-.195 0-.351-.12-.351-.318m16.663-6.463c0-.199.156-.318.35-.318h1.168c.195 0 .312.12.312.318.117 3.411 1.713 5.394 4.555 5.394 2.92 0 4.517-1.746 4.517-4.562 0-7.098-10.707-8.288-10.707-16.022 0-3.688 2.492-6.148 6.152-6.148 3.465 0 5.957 2.777 6.073 7.02 0 .2-.116.318-.31.318h-1.17c-.194 0-.35-.119-.35-.318-.117-3.53-1.712-5.274-4.243-5.274-2.687 0-4.322 1.586-4.322 4.402 0 6.624 10.707 7.852 10.707 16.022 0 3.69-2.492 6.306-6.347 6.306-3.776 0-6.307-2.894-6.385-7.138M105.58 1.094v1.07c0 .2-.116.358-.31.358h-4.868V28.22c0 .198-.117.318-.311.318h-1.169c-.193 0-.35-.12-.35-.318V2.52h-4.867c-.194 0-.311-.158-.311-.356v-1.07c0-.199.117-.317.311-.317h11.564c.195 0 .312.118.312.317m1.945 20.782V7.44c0-3.847 2.53-6.743 6.268-6.743h3.856c.195 0 .31.12.31.318v1.07c0 .2-.115.357-.31.357h-3.856c-2.685 0-4.437 2.102-4.437 4.998v6.147h7.397c.195 0 .35.12.35.317v1.071c0 .198-.155.318-.35.318h-7.397v6.583c0 2.895 1.752 4.996 4.437 4.996h3.856c.195 0 .31.16.31.358v1.07c0 .199-.115.318-.31.318h-3.856c-3.737 0-6.268-2.895-6.268-6.742m20.712-6.505c2.648 0 4.439-2.101 4.439-5.116V7.36c0-3.094-1.79-5.196-4.439-5.196-2.608 0-4.4 2.102-4.4 5.196v8.011h4.4zm-6.23 12.85V7.36c0-4.046 2.57-6.941 6.23-6.941 3.66 0 6.23 2.895 6.23 6.94v2.895c0 3.411-1.947 5.87-4.36 6.544l4.866 11.343c.077.237-.039.397-.272.397h-1.285c-.156 0-.272-.08-.35-.278l-4.673-11.145h-4.555V28.22c0 .198-.117.318-.312.318h-1.168c-.195 0-.35-.12-.35-.318zM12.424 14.657zm.539 0zm3.947-6.592l-5.085-6.373h7.416L16.91 8.065zm-.662 1.808l-5.833 15.953L4.58 9.873l-.12-.294.473-.617.008-.01 5.471-6.859v.002l.002-.002v.002-.002l5.472 6.86.008.01.473.616-.12.294zm-14.66-8.18h7.416L3.919 8.064l-2.33-6.373zM.621.322a.625.625 0 0 0-.193.034.182.182 0 0 0-.062.023.614.614 0 0 0-.21.134 1.033 1.033 0 0 0-.098.12C-.114.87.128 1.642.36 2.245L2.806 8.94l.385 1.05 5.841 15.968.833 2.728a.287.287 0 0 0 .06.082.71.71 0 0 0 .143.115c.023.016.051.036.064.04a.391.391 0 0 0 .055.03.69.69 0 0 0 .454 0 .391.391 0 0 0 .055-.03c.014-.004.042-.024.065-.04a.71.71 0 0 0 .142-.115.293.293 0 0 0 .06-.082l.834-2.728 5.84-15.968.386-1.05 2.446-6.694c.232-.603.473-1.375.302-1.611a1.033 1.033 0 0 0-.099-.12.614.614 0 0 0-.21-.134.182.182 0 0 0-.061-.023.628.628 0 0 0-.194-.034C20.25.28.621.323.621.323z" fill="#FFF" fill-rule="evenodd"/></svg>