<svg width="32" height="32" xmlns="http://www.w3.org/2000/svg">
 <title>mainLogo</title>

 <g>
  <title>background</title>
  <rect fill="none" id="canvas_background" height="34" width="34" y="-1" x="-1"/>
 </g>
 <g>
  <title>Layer 1</title>
  <path stroke="#ffffff" stroke-width="2" id="svg_1" fill-rule="evenodd" fill="none" d="m35.581843,9.085094zm-26.098,1.941l4.54,-0.617l-4.059,-0.01l5.471,-6.859l0,0.002l0.002,-0.002l0,0.002l0,-0.002l5.472,6.86l0.008,0.01l0.473,0.616l-0.12,0.294l-11.787,-0.294zm-1.654,-0.639l0.385,1.05l5.841,15.968l0.833,2.728a0.287,0.287 0 0 0 0.06,0.082a0.71,0.71 0 0 0 0.143,0.115c0.023,0.016 0.051,0.036 0.064,0.04a0.391,0.391 0 0 0 0.055,0.03a0.69,0.69 0 0 0 0.454,0a0.391,0.391 0 0 0 0.055,-0.03c0.014,-0.004 0.042,-0.024 0.065,-0.04a0.71,0.71 0 0 0 0.142,-0.115a0.293,0.293 0 0 0 0.06,-0.082l0.834,-2.728l5.84,-15.968l0.386,-1.05l2.446,-6.694c0.232,-0.603 0.473,-1.375 0.302,-1.611a1.033,1.033 0 0 0 -0.099,-0.12a0.614,0.614 0 0 0 -0.21,-0.134a0.182,0.182 0 0 0 -0.061,-0.023a0.628,0.628 0 0 0 -0.194,-0.034c0.043,-0.044 -19.586,-0.001 -19.586,-0.001l2.185,8.617z"/>
 </g>
</svg>